<svg xmlns="http://www.w3.org/2000/svg" viewBox="0 0 200 200" fill="none">
  <!-- Shield outline only — for watermark use -->
  <path d="M100 8 L180 36 L180 106 C180 152 144 180 100 196 C56 180 20 152 20 106 L20 36 Z"
        fill="white" stroke="white" stroke-width="3"/>
  <!-- Orca silhouette -->
  <ellipse cx="104" cy="96" rx="42" ry="30" fill="white" transform="rotate(-20 104 96)"/>
  <!-- Tail -->
  <path d="M62 116 Q44 136 40 150 Q52 144 60 130 Q64 144 58 160 Q72 152 68 134 Q72 126 62 116Z" fill="white"/>
  <!-- Fin -->
  <path d="M108 74 Q120 50 128 64 Q120 68 108 74Z" fill="white"/>
  <!-- Chart arrow -->
  <path d="M80 112 L106 86 L100 86 L120 66 L114 66 L136 46" stroke="white" stroke-width="5" stroke-linecap="round" fill="none"/>
</svg>
